<?xml version="1.0" encoding="UTF-8" standalone="no"?>
<svg
   id="svg"
   version="1.1"
   width="232.93333"
   height="220.10774"
   viewBox="0 0 232.93333 220.10774"
   sodipodi:docname="OpenLongevityLogo.svg"
   xmlns:inkscape="http://www.inkscape.org/namespaces/inkscape"
   xmlns:sodipodi="http://sodipodi.sourceforge.net/DTD/sodipodi-0.dtd"
   xmlns="http://www.w3.org/2000/svg"
   xmlns:svg="http://www.w3.org/2000/svg">
  <defs
     id="defs1" />
  <sodipodi:namedview
     id="namedview1"
     pagecolor="#ffffff"
     bordercolor="#000000"
     borderopacity="0.25"
     inkscape:showpageshadow="2"
     inkscape:pageopacity="0.0"
     inkscape:pagecheckerboard="0"
     inkscape:deskcolor="#d1d1d1" />
  <g
     id="svgg"
     transform="translate(-89.483192,-73.597)">
    <path
       id="path0"
       d="m 202.461,73.729 c 1.89,0.071 4.878,0.071 6.64,-0.001 1.762,-0.072 0.215,-0.131 -3.437,-0.131 -3.652,0.001 -5.094,0.06 -3.203,0.132 m 12.48,0.368 c 0.376,0.099 0.992,0.099 1.368,0 0.376,-0.098 0.068,-0.178 -0.684,-0.178 -0.752,0 -1.06,0.08 -0.684,0.178 m -16.503,8.594 c -17.81,1.344 -36.701,8.685 -52.19,20.281 l -3.557,2.663 -0.545,4.897 c -3.054,27.463 6.136,44.992 34.026,64.906 12.581,8.983 14.844,10.321 14.844,8.779 0,-0.703 2.888,-5.119 4.891,-7.477 l 1.673,-1.971 -10.531,-7.538 c -22.863,-16.366 -30.805,-26.008 -33.325,-40.463 -1.375,-7.882 -2.076,-7.627 21.019,-7.627 h 18.128 l 0.175,-3.223 c 0.467,-8.579 7.698,-14.356 15.999,-12.781 6.312,1.196 10.755,6.411 11.186,13.128 l 0.184,2.876 17.039,0.03 c 21.866,0.038 20.651,-0.311 20.24,5.814 -0.941,14.025 -9.65,25.066 -32.694,41.446 -5.264,3.742 -11.092,8.08 -12.951,9.639 -1.86,1.56 -3.486,2.836 -3.613,2.836 -0.128,0 -0.233,-2.785 -0.233,-6.188 v -6.189 l 7.815,-5.173 c 4.596,-3.043 7.708,-5.345 7.557,-5.591 -0.155,-0.25 -0.073,-0.302 0.206,-0.13 0.824,0.509 6.438,-3.361 14.752,-10.17 1.023,-0.838 0.48,-0.934 -5.308,-0.934 -5.516,0 -5.895,-0.049 -6.874,-0.892 -1.67,-1.436 -1.787,-4.076 -0.256,-5.79 l 1.183,-1.326 8.899,-0.195 8.9,-0.195 1.673,-3.125 c 0.92,-1.719 1.676,-3.345 1.68,-3.613 0.006,-0.388 -8.881,-0.489 -43.151,-0.489 h -43.158 l 0.739,1.856 c 0.407,1.02 1.205,2.681 1.774,3.69 l 1.035,1.835 8.8,0.118 8.8,0.118 1.139,1.276 c 1.289,1.444 1.469,3.008 0.549,4.787 -0.911,1.761 -1.656,1.945 -7.864,1.945 h -5.771 l 1.741,1.795 c 2.373,2.445 5.244,4.604 10.335,7.773 2.364,1.47 6.089,3.83 8.278,5.244 2.19,1.414 5.486,3.507 7.325,4.65 l 3.343,2.079 v 9.064 9.063 l -2.93,2.91 c -3.465,3.442 -3.375,2.98 -1.115,5.755 0.998,1.225 2.316,3.288 2.929,4.584 l 1.115,2.357 -0.008,16.406 -0.009,16.406 -7.103,4.688 c -11.99,7.913 -16.948,11.989 -21.427,17.618 -2.183,2.744 -2.388,3.271 -0.847,2.186 2.555,-1.798 8.455,-4.847 12.793,-6.609 3.901,-1.584 5.638,-2.594 10.352,-6.02 3.115,-2.263 5.84,-4.216 6.054,-4.34 0.255,-0.145 0.349,1.48 0.271,4.653 -0.083,3.337 0.025,5.052 0.34,5.433 0.381,0.458 0.265,0.556 -0.66,0.561 -1.821,0.008 -3.039,0.431 -2.425,0.842 0.343,0.229 0.187,0.271 -0.455,0.123 -1.578,-0.362 -11.754,3.446 -19.12,7.154 -2.678,1.348 -8.211,4.82 -8.219,5.157 -0.002,0.107 2.559,0.195 5.692,0.195 h 5.696 l 1.14,1.276 c 1.235,1.383 1.454,2.878 0.672,4.594 -0.906,1.989 -1.772,2.138 -12.45,2.138 h -9.83 l 0.235,0.879 c 0.13,0.483 0.238,1.007 0.241,1.165 0.008,0.459 3.752,2.234 8.58,4.067 l 4.472,1.699 28.932,0.02 28.931,0.02 3.901,-1.364 c 8.45,-2.955 9.354,-3.436 9.49,-5.05 l 0.121,-1.436 h -10.01 c -10.671,0 -11.136,-0.075 -12.103,-1.946 -0.92,-1.779 -0.74,-3.342 0.549,-4.786 l 1.14,-1.276 h 5.5 c 3.026,0 5.501,-0.026 5.502,-0.058 0.02,-1.718 -24.828,-13.125 -29.411,-13.501 -0.849,-0.07 -0.86,-0.15 -0.732,-5.17 0.157,-6.13 -0.19,-5.754 3.047,-3.295 4.462,3.391 9.936,6.818 13.034,8.161 3.709,1.609 12.264,5.931 14.062,7.104 1.118,0.73 0.817,0.242 -1.65,-2.674 -4.836,-5.717 -8.883,-9.181 -17.429,-14.919 -4.371,-2.935 -8.634,-5.834 -9.473,-6.444 l -1.526,-1.108 v -16.297 -16.298 l 1.39,-2.308 c 4.031,-6.694 6.634,-8.912 28.554,-24.331 24.358,-17.134 34.262,-37.256 30.798,-62.573 -0.308,-2.256 -0.566,-4.294 -0.573,-4.529 -0.007,-0.235 -1.902,-1.836 -4.212,-3.557 -19.607,-14.615 -42.557,-21.519 -65.722,-19.77 m 101.953,7.033 c -2.475,0.885 -1.678,4.807 0.976,4.807 2.328,0 3.331,-2.836 1.51,-4.268 -1.048,-0.825 -1.446,-0.911 -2.486,-0.539 m 11.426,2.659 c 0.005,0.859 0.085,1.165 0.178,0.679 0.093,-0.486 0.09,-1.189 -0.008,-1.563 -0.098,-0.373 -0.174,0.024 -0.17,0.884 m -131.485,2.788 c 2.385,1.132 3.502,4.428 2.293,6.767 -2.599,5.026 -9.578,3.288 -9.578,-2.385 0,-3.808 3.746,-6.061 7.285,-4.382 m 128.042,4.536 -1.147,1.27 1.269,-1.148 c 0.698,-0.631 1.27,-1.202 1.27,-1.269 0,-0.302 -0.323,-0.036 -1.392,1.147 m -193.551,3.32 -1.346,1.465 1.464,-1.346 c 0.806,-0.74 1.465,-1.4 1.465,-1.465 0,-0.298 -0.33,-0.017 -1.583,1.346 m 185.477,-0.4 c 0.702,0.087 1.757,0.085 2.344,-0.004 0.587,-0.089 0.012,-0.16 -1.277,-0.158 -1.289,0.002 -1.769,0.075 -1.067,0.162 m -21.394,0.215 c 0,0.059 1.363,1.421 3.028,3.027 l 3.027,2.92 -2.92,-3.027 c -2.712,-2.812 -3.135,-3.206 -3.135,-2.92 m -74.392,10.917 c -1.803,2.575 1.027,5.405 3.602,3.602 1.095,-0.767 1.18,-2.895 0.154,-3.824 -1.047,-0.948 -3.018,-0.832 -3.756,0.222 m 73.07,3.136 c 2.27,6.808 -2.414,26.141 -8.566,35.356 l -1.894,2.838 1.585,1.893 c 1.902,2.272 3.826,6.198 4.174,8.519 l 0.253,1.687 h 2.236 c 9.519,0 18.925,7.078 20.757,15.619 0.38,1.771 0.522,1.959 1.489,1.959 1.869,0 4.973,1.133 7.089,2.589 l 2.05,1.41 -0.223,-6.785 c -0.792,-24.147 -10.212,-47.074 -26.019,-63.328 -2.702,-2.778 -3.413,-3.204 -2.931,-1.757 m -147.597,2.576 c -15.145,15.861 -24.419,39.189 -25.183,63.342 l -0.216,6.835 1.71,-1.69 c 3.043,-3.007 9.477,-5.536 14.086,-5.536 h 1.491 v -2.505 c 0,-12.853 9.645,-23.276 21.538,-23.276 1.845,0 1.87,0.251 -0.294,-2.976 -6.318,-9.42 -9.454,-19.191 -9.873,-30.766 l -0.238,-6.593 -3.021,3.165 m 182.612,2.99 c 0.004,0.859 0.084,1.165 0.177,0.679 0.094,-0.486 0.09,-1.189 -0.008,-1.563 -0.097,-0.373 -0.174,0.025 -0.169,0.884 m -220.9,-0.052 c -0.591,0.508 -1.074,1.137 -1.074,1.397 0,0.26 0.455,-0.068 1.011,-0.729 1.368,-1.625 4.207,-1.74 5.628,-0.227 0.504,0.536 0.994,0.898 1.088,0.803 0.095,-0.095 -0.312,-0.621 -0.905,-1.17 -1.472,-1.365 -4.206,-1.4 -5.748,-0.074 m 5.621,6.51 c -0.507,0.423 -0.739,0.769 -0.516,0.769 0.394,0 1.634,-1.059 1.634,-1.396 0,-0.266 -0.139,-0.188 -1.118,0.627 m -5.182,0.476 c 0.39,0.497 1.028,0.665 2.343,0.615 l 1.808,-0.068 -1.75,-0.154 c -0.963,-0.085 -2.017,-0.362 -2.344,-0.616 -0.518,-0.403 -0.526,-0.375 -0.057,0.223 m 193.031,12.213 c 3.046,1.576 3.017,5.849 -0.051,7.435 -1.773,0.917 -3.027,0.704 -4.493,-0.762 -3.438,-3.438 0.27,-8.883 4.544,-6.673 m -162.024,11.928 c 2.753,2.984 -0.621,7.113 -4.573,5.596 -1.867,-0.716 -2.177,-4.369 -0.5,-5.895 1.766,-1.606 3.404,-1.51 5.073,0.299 m 80.278,4.545 c -0.374,0.098 -1.077,0.101 -1.563,0.008 -0.486,-0.094 -0.18,-0.174 0.679,-0.178 0.859,-0.004 1.257,0.072 0.884,0.17 m -62.836,8.736 c -3.719,0.597 -8.165,4.185 -8.165,6.588 0,0.256 3.544,0.437 9.961,0.508 5.479,0.061 9.961,0.059 9.961,-0.003 -0.009,-3.613 -7.033,-7.851 -11.757,-7.093 m 111.584,6.707 c -0.808,1.153 -0.767,1.708 0.193,2.668 1.333,1.333 3.087,0.426 3.099,-1.602 0.012,-1.967 -2.167,-2.672 -3.292,-1.066 m -155.987,2.648 c 0,0.752 0.081,1.059 0.179,0.683 0.098,-0.376 0.098,-0.991 0,-1.367 -0.098,-0.376 -0.179,-0.068 -0.179,0.684 m 219.141,1.562 c 0,0.752 0.08,1.06 0.179,0.684 0.098,-0.376 0.098,-0.991 0,-1.367 -0.099,-0.376 -0.179,-0.069 -0.179,0.683 m -183.504,3.009 c 1.431,5.704 8.976,9.035 14.887,6.573 2.467,-1.027 6.026,-5.295 6.026,-7.225 0,-0.268 -3.563,-0.403 -10.589,-0.403 h -10.589 l 0.265,1.055 m 137.397,-0.305 c -5.926,2.198 -9.216,7.041 -9.176,13.507 0.09,14.534 20.416,18.794 26.528,5.561 5.126,-11.098 -5.97,-23.291 -17.352,-19.068 m -173.369,4.914 c 10e-4,2.363 0.065,3.279 0.143,2.036 0.078,-1.243 0.077,-3.177 -0.001,-4.297 -0.079,-1.12 -0.143,-0.103 -0.142,2.261 m 147.667,1.275 c -1.621,1.082 -1.307,4.183 0.468,4.629 2.153,0.54 3.743,-0.882 3.327,-2.975 -0.308,-1.554 -2.509,-2.513 -3.795,-1.654 m 33.399,1.296 c 3.86,2.353 4.615,6.561 1.748,9.735 -4.257,4.712 -11.593,1.516 -10.987,-4.787 0.424,-4.411 5.586,-7.176 9.239,-4.948 m -113.456,4.051 c -1.109,1.109 -1.208,2.028 -0.351,3.252 1.272,1.816 4.47,0.686 4.47,-1.581 0,-0.877 -1.692,-2.629 -2.539,-2.629 -0.342,0 -1.053,0.431 -1.58,0.958 m 151.866,0.604 c 0,0.752 0.08,1.06 0.179,0.684 0.098,-0.376 0.098,-0.991 0,-1.367 -0.099,-0.376 -0.179,-0.069 -0.179,0.683 m -219.133,1.758 c 0.005,0.859 0.085,1.165 0.178,0.679 0.093,-0.486 0.09,-1.189 -0.008,-1.563 -0.098,-0.373 -0.174,0.025 -0.17,0.884 m 85.011,8.163 c -28.945,20.351 -39.072,33.937 -39.629,53.169 l -0.147,5.081 3.973,2.926 c 2.186,1.61 4.797,3.488 5.802,4.175 l 1.829,1.248 0.194,-7.108 c 0.429,-15.73 6.517,-26.902 20.603,-37.813 4.386,-3.397 18.193,-13.295 20.687,-14.829 1.107,-0.681 1.966,-1.497 1.961,-1.862 -0.021,-1.609 -2.507,-5.831 -5.402,-9.176 l -1.48,-1.71 -8.391,5.899 m 38.008,-3.942 c -1.861,2.237 -4.175,6.156 -4.561,7.723 -0.232,0.943 0.356,1.441 9.446,8.001 27.968,20.182 34.501,29.756 34.036,49.88 -0.068,2.954 -0.088,5.371 -0.044,5.371 0.044,0 1.205,-0.836 2.581,-1.856 1.376,-1.021 4.047,-2.976 5.936,-4.344 l 3.433,-2.489 -0.241,-4.751 c -1.014,-20.003 -10.56,-33.003 -38.742,-52.756 -3.653,-2.56 -7.281,-5.149 -8.064,-5.753 -1.826,-1.409 -1.79,-1.418 -3.78,0.974 m 76.972,5.076 c -1.786,0.805 -1.43,3.535 0.524,4.026 1.865,0.468 3.26,-1.894 2.023,-3.428 -0.696,-0.864 -1.525,-1.059 -2.547,-0.598 m -147.498,1.864 c -1.314,1.034 -1.391,2.798 -0.161,3.661 2.735,1.915 5.486,-1.604 2.961,-3.787 -1.023,-0.885 -1.544,-0.862 -2.8,0.126 m 133.3,16.332 c -2.471,2.472 -1.927,5.854 1.166,7.249 5.324,2.401 9.257,-4.936 4.275,-7.974 -2.069,-1.262 -3.667,-1.048 -5.441,0.725 m -99.1,5.391 c -0.283,0.113 -0.683,0.65 -0.889,1.194 -0.788,2.073 1.769,3.78 3.328,2.222 1.57,-1.571 -0.345,-4.254 -2.439,-3.416 m -56.322,0.905 c -1.432,1.431 -0.637,3.874 1.458,4.483 1.12,0.325 2.838,-1.305 2.838,-2.692 0,-2.149 -2.78,-3.307 -4.296,-1.791 m 100.217,0.087 c -0.801,1.143 -0.768,1.991 0.106,2.782 1.436,1.3 3.583,0.4 3.583,-1.502 0,-2.022 -2.549,-2.907 -3.689,-1.28 m 60.506,28.526 -1.544,1.66 1.66,-1.544 c 1.544,-1.436 1.84,-1.776 1.544,-1.776 -0.063,0 -0.81,0.747 -1.66,1.66 m -159.161,4.395 c 2.033,2.041 3.783,3.711 3.891,3.711 0.107,0 -1.468,-1.67 -3.5,-3.711 -2.033,-2.041 -3.784,-3.711 -3.891,-3.711 -0.108,0 1.467,1.67 3.5,3.711 m 188.372,2.148 c 0,0.752 0.08,1.06 0.179,0.684 0.098,-0.376 0.098,-0.991 0,-1.367 -0.099,-0.376 -0.179,-0.069 -0.179,0.683 m -37.029,1.27 -1.148,1.269 1.27,-1.147 c 0.698,-0.631 1.269,-1.202 1.269,-1.27 0,-0.301 -0.322,-0.036 -1.391,1.148 m -182.735,0.1 c -1.773,1.773 -0.806,4.099 1.705,4.099 1.191,0 1.682,-0.21 2.148,-0.922 1.477,-2.254 -1.95,-5.08 -3.853,-3.177 m 212.94,5.157 c 0.485,0.093 1.189,0.089 1.562,-0.008 0.373,-0.098 -0.024,-0.175 -0.883,-0.17 -0.86,0.004 -1.165,0.084 -0.679,0.178 m -94.927,23.436 c 0.483,0.094 1.275,0.094 1.758,0 0.483,-0.093 0.088,-0.169 -0.879,-0.169 -0.967,0 -1.362,0.076 -0.879,0.169 m -11.523,0.406 c 1.665,0.073 4.389,0.073 6.054,0 1.665,-0.073 0.303,-0.133 -3.027,-0.133 -3.33,0 -4.692,0.06 -3.027,0.133"
       stroke="none"
       fill="#f1f2f4"
       fill-rule="evenodd" />
    <path
       id="path1"
       d="m 197.656,74.069 c -61.843,5.69 -108.129,62.628 -100.625,123.783 5.924,48.278 46.227,88.384 94.961,94.496 68.708,8.618 129.769,-50.004 122.873,-117.963 -5.98,-58.93 -60.438,-105.539 -117.209,-100.316 m -95.236,4.896 c -16.098,2.854 -13.715,27.484 2.658,27.478 16.875,-0.006 19.138,-24.693 2.518,-27.472 -2.575,-0.431 -2.776,-0.431 -5.176,-0.006 m 114.377,3.887 c 15.236,1.774 32.232,8.441 45.117,17.699 6.529,4.691 6.615,4.78 6.889,7.21 0.137,1.21 0.467,3.87 0.732,5.911 2.891,22.206 -8.046,43.289 -30.703,59.187 -22.069,15.486 -26.219,19.034 -29.245,24.998 l -0.993,1.959 v 16.3 16.301 l 1.52,1.077 c 0.837,0.592 4.889,3.343 9.005,6.114 9.062,6.101 12.391,8.924 17.095,14.497 3.951,4.683 4.17,5.166 1.505,3.333 -0.985,-0.677 -4.556,-2.55 -7.938,-4.161 -9.942,-4.738 -10.751,-5.191 -16.081,-9.008 -2.798,-2.004 -5.136,-3.644 -5.195,-3.644 -0.058,0 -0.107,2.186 -0.107,4.858 v 4.857 l 1.368,0.25 c 6.585,1.204 28.901,11.906 28.906,13.863 0.001,0.108 -2.543,0.139 -5.653,0.069 -5.603,-0.125 -5.662,-0.117 -6.641,0.861 -1.362,1.363 -1.384,4.034 -0.045,5.591 l 0.942,1.096 10.191,0.116 10.19,0.117 v 1.502 c 0,1.489 -0.023,1.512 -2.636,2.571 -6.832,2.768 -12.305,4.401 -13.54,4.04 -0.672,-0.197 -13.222,-0.337 -28.355,-0.317 l -27.148,0.035 -3.313,-1.223 c -7.298,-2.695 -9.773,-4.099 -9.773,-5.546 v -1.295 l 9.293,0.137 c 10.752,0.159 11.784,-0.044 12.819,-2.522 1.671,-3.998 -0.198,-5.232 -7.924,-5.232 h -6.16 l 3.115,-2.183 c 5.476,-3.839 16.773,-8.889 24.919,-11.139 l 3.387,-0.936 0.002,-4.977 0.002,-4.977 -3.418,2.417 c -1.88,1.329 -4.479,3.225 -5.776,4.212 -1.297,0.986 -2.966,2.038 -3.711,2.335 -7.951,3.181 -15.7,7.134 -17.857,9.11 -1.581,1.448 -0.927,0.285 1.67,-2.971 4.314,-5.409 10.031,-10.272 19.717,-16.772 4.834,-3.244 8.922,-6.087 9.085,-6.317 0.163,-0.23 0.251,-7.714 0.195,-16.63 l -0.101,-16.211 -1.058,-2.007 c -0.583,-1.104 -1.932,-3.146 -2.998,-4.537 l -1.939,-2.53 3.095,-3.339 3.096,-3.338 v -8.636 -8.635 l -3.478,-2.239 c -1.913,-1.231 -5.467,-3.469 -7.898,-4.973 -11.385,-7.044 -19.872,-13.283 -19.875,-14.613 0,-0.127 2.56,-0.174 5.688,-0.104 7.33,0.163 9.241,-0.974 8.342,-4.964 -0.607,-2.692 -0.945,-2.78 -10.661,-2.78 h -8.654 l -1.222,-2.051 c -1.373,-2.306 -2.477,-4.807 -2.477,-5.614 0,-0.454 6.787,-0.538 43.36,-0.538 23.847,0 43.359,0.065 43.359,0.146 0,0.633 -1.328,3.605 -2.509,5.615 l -1.435,2.442 h -8.399 c -9.504,0 -10.318,0.186 -11.093,2.534 -1.261,3.821 1.084,5.265 8.563,5.272 l 5.634,0.006 -0.945,1.006 c -2.239,2.383 -9.118,7.346 -19.122,13.794 l -10.733,6.918 -0.108,6.133 c -0.059,3.374 -0.004,6.134 0.121,6.134 0.126,0 0.965,-0.69 1.865,-1.534 2.117,-1.982 4.861,-4.042 15.114,-11.343 21.435,-15.264 29.381,-25.157 31.666,-39.422 1.118,-6.981 1.983,-6.686 -19.605,-6.686 h -18.018 l 0.228,-1.139 c 0.346,-1.729 -0.433,-5.745 -1.537,-7.923 -6.681,-13.184 -27.382,-6.999 -25.426,7.597 l 0.196,1.465 H 174.42 c -23.053,0 -21.914,-0.448 -20.331,8 2.653,14.159 10.521,23.47 33.869,40.084 11.033,7.851 10.228,6.76 7.439,10.082 -1.258,1.498 -2.87,3.873 -3.583,5.277 -0.79,1.557 -1.465,2.451 -1.731,2.292 -0.434,-0.261 -1.695,-1.123 -9.028,-6.178 -19.333,-13.326 -28.002,-22.039 -33.802,-33.971 -4.901,-10.08 -6.878,-19.768 -5.86,-28.711 0.232,-2.041 0.533,-5.268 0.669,-7.17 l 0.247,-3.46 2.185,-1.744 c 20.338,-16.228 47.213,-24.101 72.303,-21.18 m 79.867,0.104 c -8.262,3.847 -7.213,16.263 1.59,18.822 8.976,2.609 16.215,-6.273 11.919,-14.623 -2.345,-4.558 -8.578,-6.495 -13.509,-4.199 m -187.85,5.123 c 5.584,4.258 0.643,12.916 -5.828,10.212 -4.817,-2.013 -5.059,-7.909 -0.447,-10.865 1.66,-1.064 4.398,-0.779 6.275,0.653 m 194.234,2.058 c 1.922,1.662 0.877,4.394 -1.681,4.394 -1.312,0 -2.929,-1.402 -2.929,-2.539 0,-1.997 3.033,-3.218 4.61,-1.855 m -127.704,5.372 c -4.352,2.365 -1.842,9.554 3.158,9.043 3.466,-0.354 5.373,-4.098 3.718,-7.299 -1.104,-2.134 -4.55,-3.008 -6.876,-1.744 m 33.072,17.95 c 1.784,1.784 0.732,4.64 -1.709,4.64 -2.689,0 -3.854,-3.151 -1.772,-4.789 1.352,-1.064 2.31,-1.023 3.481,0.149 m 72.468,5.193 c 13.882,14.82 21.779,31.56 25.015,53.028 0.788,5.229 1.469,17.383 0.974,17.383 -0.153,0 -0.927,-0.52 -1.72,-1.155 -1.919,-1.535 -4.105,-2.419 -6.705,-2.709 l -2.139,-0.238 -0.292,-1.716 c -1.413,-8.297 -9.84,-15.006 -19.642,-15.637 l -3.508,-0.225 -0.312,-1.871 c -0.452,-2.702 -1.858,-5.635 -3.915,-8.16 l -1.796,-2.205 2.052,-3.118 c 5.669,-8.617 9.29,-21.995 8.708,-32.17 -0.289,-5.053 -0.315,-5.044 3.28,-1.207 m -147.422,3.125 c -0.022,11.143 3.183,21.594 9.68,31.56 1.194,1.832 2.169,3.368 2.167,3.415 -0.001,0.046 -1.151,0.133 -2.554,0.193 -11.433,0.488 -19.764,9.273 -20.454,21.571 l -0.231,4.101 -3.356,0.256 c -4.924,0.376 -13.636,4.583 -13.636,6.586 0,0.212 -0.176,0.385 -0.39,0.385 -1.007,0 -0.239,-12.121 1.373,-21.68 3.157,-18.72 11.913,-36.519 24.355,-49.512 3.241,-3.384 3.059,-3.57 3.046,3.125 m 181.726,-3.612 c -1.418,0.771 -2.44,3.061 -2.158,4.836 0.529,3.332 4.884,5.142 7.472,3.105 4.688,-3.687 -0.067,-10.792 -5.314,-7.941 m -170.113,48.662 c 6.415,1.615 9.918,9.619 6.817,15.577 -5.274,10.136 -20.447,6.671 -20.447,-4.67 0,-7.627 6.381,-12.732 13.63,-10.907 m 109.988,6.294 c 1.488,1.597 0.558,3.832 -1.594,3.832 -1.922,0 -2.669,-2.937 -1.038,-4.079 1.165,-0.816 1.687,-0.767 2.632,0.247 m 24.597,7.572 c 10.965,5.007 11.266,20.341 0.504,25.64 -9.614,4.733 -20.863,-2.56 -20.312,-13.169 0.535,-10.295 10.64,-16.657 19.808,-12.471 m -32.963,6.203 c 1.684,1.684 0.518,4.901 -1.775,4.901 -2.377,0 -3.584,-3.572 -1.705,-5.05 1.351,-1.063 2.309,-1.022 3.48,0.149 m 24.201,1.331 c -5.374,3.32 -3.129,11.513 3.155,11.513 6.005,0 8.329,-8.332 3.197,-11.461 -1.662,-1.013 -4.755,-1.038 -6.352,-0.052 m -104.188,3.397 c 1.135,0.795 1.182,2.984 0.087,4.079 -1.648,1.648 -4.297,0.402 -4.297,-2.02 0,-2.352 2.233,-3.444 4.21,-2.059 m 64.931,11.889 c 28.184,19.786 38.281,33.836 38.281,53.269 v 4.37 l -5.957,4.329 -5.957,4.329 -0.243,-7.854 c -0.609,-19.682 -6.297,-27.717 -33.507,-47.332 -10.068,-7.257 -10.114,-7.297 -9.785,-8.442 0.559,-1.952 2.991,-5.971 4.891,-8.084 l 1.809,-2.012 1.816,1.314 c 0.999,0.723 4.892,3.473 8.652,6.113 m -101.327,-6.284 c 7.625,3.463 6.792,15.03 -1.257,17.452 -7.406,2.229 -13.868,-4.261 -11.693,-11.743 1.535,-5.283 7.803,-8.046 12.95,-5.709 m 61.691,1.892 c 1.985,2.403 4.062,6.04 4.659,8.159 0.192,0.678 -0.078,1.018 -1.442,1.818 -2.244,1.315 -18.147,12.684 -21.589,15.433 -14.684,11.731 -21.119,24.779 -20.441,41.448 0.159,3.928 0.494,3.976 -6.122,-0.871 l -5.468,-4.007 -0.11,-4.721 c -0.43,-18.608 10.594,-33.723 39.323,-53.915 9.957,-6.998 8.525,-6.57 11.19,-3.344 m 106.574,4.592 c 0.973,0.973 1.143,2.112 0.468,3.142 -1.207,1.842 -4.125,0.932 -4.125,-1.286 0,-2.037 2.306,-3.207 3.657,-1.856 m -146.626,1.756 c 2.125,2.125 -0.421,5.5 -3.102,4.113 -1.773,-0.917 -2.041,-2.256 -0.776,-3.865 0.991,-1.26 2.754,-1.372 3.878,-0.248 m 135.046,15.105 c 4.74,2.249 3.282,9.114 -1.935,9.114 -5.317,0 -6.654,-6.624 -1.833,-9.082 1.658,-0.846 2.046,-0.849 3.768,-0.032 m -156.371,8.076 c 1.44,1.928 -0.651,4.614 -3.11,3.997 -1.414,-0.355 -2.298,-2.301 -1.655,-3.643 1.051,-2.191 3.271,-2.356 4.765,-0.354 m 54.554,-1.293 c 1.188,0.636 1.026,2.916 -0.266,3.763 -0.915,0.6 -1.129,0.609 -2.051,0.094 -2.742,-1.532 -0.455,-5.34 2.317,-3.857 m 44.689,0.364 c 2.103,2.324 -0.765,5.39 -3.211,3.433 -0.833,-0.666 -0.596,-2.909 0.38,-3.593 1.161,-0.813 1.993,-0.766 2.831,0.16 m 13.636,15.07 c 0.942,2.454 -1.798,4.405 -3.73,2.656 -1.789,-1.619 0.248,-4.964 2.358,-3.873 0.621,0.322 1.239,0.869 1.372,1.217 m -71.956,-0.738 c 0.877,0.793 0.93,2.598 0.101,3.427 -0.871,0.871 -2.781,0.788 -3.279,-0.142 -1.36,-2.542 1.141,-5.129 3.178,-3.285 m -76.87,16.307 c -6.382,2.972 -7.027,11.73 -1.157,15.718 6.874,4.671 16.168,-2.591 13.362,-10.441 -1.834,-5.132 -7.373,-7.527 -12.205,-5.277 m 212.444,-0.159 c -5.569,3.396 -2.24,12.224 4.2,11.136 5.255,-0.888 6.733,-8.404 2.196,-11.171 -1.646,-1.003 -4.72,-0.986 -6.396,0.035 m -206.637,6.72 c 2.092,2.419 -1.237,5.488 -3.917,3.612 -1.609,-1.128 -0.967,-3.839 1.085,-4.58 0.885,-0.32 2.069,0.085 2.832,0.968"
       stroke="none"
       fill="#041426"
       fill-rule="evenodd" />
    <path
       id="path2"
       d="m 102.044,87.988 c -6.198,4.307 -0.549,13.09 6.204,9.645 1.836,-0.936 2.69,-2.589 2.69,-5.208 0,-4.163 -5.406,-6.86 -8.894,-4.437 m -10.125,34.761 c -0.442,0.486 -0.716,1.128 -0.608,1.426 0.12,0.333 0.025,0.437 -0.245,0.27 -0.3,-0.185 -0.441,0.234 -0.441,1.313 0,0.948 0.183,1.586 0.456,1.586 0.25,0 0.357,0.098 0.236,0.219 -0.654,0.654 1.548,2.025 3.307,2.06 3.735,0.073 5.503,-3.507 3.09,-6.256 -1.555,-1.77 -4.464,-2.081 -5.795,-0.618 M 281.4,141.634 c -2.493,1.23 -2.879,4.543 -0.775,6.647 1.466,1.466 2.72,1.679 4.493,0.762 4.938,-2.553 1.267,-9.869 -3.718,-7.409 m -161.869,10.587 c -2.168,0.823 -3.235,3.49 -2.197,5.497 1.613,3.12 6.885,1.679 6.885,-1.882 0,-2.078 -2.882,-4.3 -4.688,-3.615 m 12.092,23.849 c -0.732,3.882 -1.499,3.618 10.503,3.618 h 10.511 l 0.226,-1.132 c 0.289,-1.443 -0.092,-3.82 -0.691,-4.318 -0.267,-0.221 -4.606,-0.43 -10.276,-0.494 l -9.814,-0.111 -0.459,2.437 m -8.576,21.156 c -9.324,3.298 -6.873,17.631 3.012,17.614 6.089,-0.01 10.31,-5.035 9.137,-10.876 -1.158,-5.762 -6.512,-8.732 -12.149,-6.738 m 45.959,44.895 c -1.24,1.37 -0.531,3.973 1.083,3.973 0.865,0 2.177,-1.413 2.177,-2.344 0,-1.809 -2.133,-2.875 -3.26,-1.629 m 71.094,0 c -1.538,1.698 0.132,4.628 2.052,3.601 1.809,-0.968 1.835,-2.962 0.052,-3.916 -1.036,-0.555 -1.362,-0.506 -2.104,0.315"
       stroke="none"
       fill="#38aaf5"
       fill-rule="evenodd" />
    <path
       id="path3"
       d="m 197.363,74.097 c 0.376,0.099 0.991,0.099 1.367,0 0.376,-0.098 0.069,-0.178 -0.683,-0.178 -0.752,0 -1.06,0.08 -0.684,0.178 m 14.653,0.007 c 0.486,0.094 1.189,0.09 1.563,-0.007 0.373,-0.098 -0.024,-0.175 -0.884,-0.17 -0.859,0.004 -1.165,0.084 -0.679,0.177 M 95.291,82.715 93.945,84.18 95.41,82.834 c 1.364,-1.253 1.645,-1.584 1.346,-1.584 -0.065,0 -0.724,0.659 -1.465,1.465 m 205.002,-0.799 c 0.483,0.093 1.274,0.093 1.758,0 0.483,-0.093 0.088,-0.169 -0.879,-0.169 -0.967,0 -1.362,0.076 -0.879,0.169 m -94.922,0.391 c 0.483,0.093 1.275,0.093 1.758,0 0.483,-0.093 0.088,-0.169 -0.879,-0.169 -0.967,0 -1.362,0.076 -0.879,0.169 m 85.353,10.076 c 0.004,0.859 0.084,1.165 0.177,0.679 0.094,-0.486 0.09,-1.189 -0.008,-1.563 -0.097,-0.373 -0.174,0.024 -0.169,0.884 m -113.283,2.418 c 0.376,0.098 0.992,0.098 1.368,0 0.376,-0.099 0.068,-0.179 -0.684,-0.179 -0.752,0 -1.06,0.08 -0.684,0.179 m 115.137,3.368 c 0,0.067 0.571,0.639 1.27,1.27 l 1.269,1.147 -1.147,-1.27 c -1.07,-1.183 -1.392,-1.449 -1.392,-1.147 m -15.234,3.516 c 0,0.067 0.571,0.638 1.269,1.269 l 1.27,1.148 -1.147,-1.27 c -1.07,-1.183 -1.392,-1.449 -1.392,-1.147 m -147.862,4.272 -2.724,2.832 2.832,-2.724 c 2.63,-2.53 3.01,-2.94 2.724,-2.94 -0.06,0 -1.334,1.274 -2.832,2.832 m 154.893,2.832 c 0.729,0.752 1.413,1.367 1.52,1.367 0.108,0 -0.401,-0.615 -1.129,-1.367 -0.729,-0.752 -1.413,-1.367 -1.521,-1.367 -0.107,0 0.401,0.615 1.13,1.367 m -3.923,9.668 c 1.619,1.725 1.97,2.035 1.97,1.742 0,-0.063 -0.835,-0.898 -1.856,-1.856 l -1.855,-1.741 1.741,1.855 m -147.15,0.098 c 0.004,0.859 0.084,1.165 0.177,0.679 0.094,-0.486 0.09,-1.189 -0.007,-1.563 -0.098,-0.373 -0.175,0.024 -0.17,0.884 m 183.593,-1.098 c 0.376,0.098 0.991,0.098 1.367,0 0.376,-0.098 0.068,-0.179 -0.684,-0.179 -0.752,0 -1.059,0.081 -0.683,0.179 m -175.751,3.441 c 0.002,1.504 0.072,2.072 0.157,1.261 0.084,-0.81 0.083,-2.041 -0.003,-2.734 -0.087,-0.694 -0.156,-0.03 -0.154,1.473 m 41.864,-1.757 -10.156,0.215 10.253,0.088 c 6.634,0.056 10.254,-0.051 10.254,-0.303 0,-0.215 -0.044,-0.352 -0.097,-0.303 -0.054,0.048 -4.668,0.184 -10.254,0.303 m 50.488,0.291 c 2.202,0.07 5.806,0.07 8.008,0 2.202,-0.07 0.4,-0.127 -4.004,-0.127 -4.404,0 -6.206,0.057 -4.004,0.127 m 36.126,5.177 c 0,0.752 0.08,1.06 0.179,0.684 0.098,-0.376 0.098,-0.991 0,-1.367 -0.099,-0.376 -0.179,-0.069 -0.179,0.683 m -90.911,4.195 c 40.074,0.268 70.117,0.27 70.117,0.005 0,-0.162 -19.204,-0.252 -42.676,-0.2 -23.471,0.051 -35.82,0.138 -27.441,0.195 m 58.398,7.524 -8.007,0.22 7.887,0.085 c 4.931,0.054 7.977,-0.061 8.128,-0.305 0.133,-0.215 0.187,-0.352 0.121,-0.305 -0.066,0.047 -3.724,0.184 -8.129,0.305 m -67.48,0.292 c 2.309,0.069 6.089,0.069 8.398,0 2.31,-0.069 0.42,-0.126 -4.199,-0.126 -4.619,0 -6.509,0.057 -4.199,0.126 m 73.717,15.235 -2.135,2.247 2.246,-2.136 c 1.235,-1.174 2.246,-2.185 2.246,-2.246 0,-0.29 -0.373,0.049 -2.357,2.135 m 8.594,9.766 -2.135,2.246 2.246,-2.135 c 1.235,-1.174 2.246,-2.185 2.246,-2.246 0,-0.29 -0.374,0.048 -2.357,2.135 m 20.84,4.981 c 0.069,0.681 0.379,0.785 2.419,0.816 l 2.34,0.035 -2.221,-0.152 c -1.668,-0.113 -2.27,-0.317 -2.419,-0.816 -0.145,-0.487 -0.177,-0.456 -0.119,0.117 m -64.505,6.347 c -0.039,3.277 0.06,5.958 0.221,5.958 0.161,10e-4 0.247,-1.801 0.19,-4.004 -0.188,-7.28 -0.337,-7.992 -0.411,-1.954 m -74.12,-2.929 -1.147,1.269 1.269,-1.147 c 1.184,-1.07 1.449,-1.392 1.148,-1.392 -0.068,0 -0.639,0.571 -1.27,1.27 m -12.152,9.863 c 0.002,1.504 0.073,2.071 0.157,1.261 0.085,-0.811 0.083,-2.041 -0.003,-2.735 -0.086,-0.693 -0.156,-0.03 -0.154,1.474 M 96.2,179.688 c 0,0.966 0.076,1.362 0.169,0.878 0.094,-0.483 0.094,-1.274 0,-1.757 -0.093,-0.484 -0.169,-0.088 -0.169,0.879 m 176.749,-0.115 c 0.484,0.093 1.275,0.093 1.758,0 0.483,-0.094 0.088,-0.17 -0.879,-0.17 -0.967,0 -1.362,0.076 -0.879,0.17 m 42.438,5.193 c 0,2.9 0.062,4.087 0.137,2.636 0.075,-1.45 0.075,-3.823 0,-5.273 -0.075,-1.45 -0.137,-0.264 -0.137,2.637 m -8.663,-0.466 c -0.061,3.223 -0.205,4.343 -0.534,4.139 -0.291,-0.179 -0.345,-0.106 -0.152,0.207 0.695,1.123 1.014,-0.481 0.895,-4.5 l -0.126,-4.263 -0.083,4.417 m -202.279,0.466 c 0,2.47 0.063,3.481 0.141,2.246 0.077,-1.236 0.077,-3.257 0,-4.492 -0.078,-1.236 -0.141,-0.225 -0.141,2.246 m 14.993,-2.068 c 0.486,0.094 1.189,0.09 1.563,-0.008 0.373,-0.098 -0.024,-0.174 -0.884,-0.17 -0.859,0.005 -1.165,0.085 -0.679,0.178 m 80.549,3.532 -2.135,2.247 2.246,-2.136 c 1.235,-1.174 2.246,-2.185 2.246,-2.246 0,-0.29 -0.374,0.049 -2.357,2.135 m 96.205,-1.855 c 0.097,0.361 0.671,0.607 1.494,0.641 1.225,0.05 1.239,0.039 0.167,-0.133 -0.644,-0.103 -1.317,-0.392 -1.495,-0.641 -0.219,-0.306 -0.273,-0.263 -0.166,0.133 m -22.848,3.011 c 0.486,0.093 1.189,0.09 1.563,-0.008 0.373,-0.098 -0.024,-0.174 -0.884,-0.17 -0.859,0.004 -1.165,0.084 -0.679,0.178 M 96.205,190.43 c 0.003,1.074 0.079,1.467 0.169,0.873 0.09,-0.594 0.087,-1.472 -0.005,-1.953 -0.093,-0.48 -0.166,0.005 -0.164,1.08 m 183.972,3.125 c 0.004,0.859 0.084,1.165 0.177,0.679 0.094,-0.486 0.09,-1.189 -0.007,-1.563 -0.098,-0.373 -0.175,0.024 -0.17,0.884 m -71.875,7.812 c 0.004,0.86 0.084,1.165 0.177,0.679 0.094,-0.486 0.09,-1.189 -0.007,-1.562 -0.098,-0.374 -0.175,0.024 -0.17,0.883 m 42.675,17.383 c 0.839,0.859 1.613,1.563 1.721,1.563 0.107,0 -0.492,-0.704 -1.331,-1.563 -0.839,-0.859 -1.613,-1.562 -1.721,-1.562 -0.107,0 0.491,0.703 1.331,1.562 M 208.364,225 c 0,3.76 0.058,5.298 0.13,3.418 0.072,-1.88 0.072,-4.956 0,-6.836 -0.072,-1.88 -0.13,-0.342 -0.13,3.418 m 46.128,-2.734 c 0.839,0.859 1.614,1.562 1.721,1.562 0.108,0 -0.491,-0.703 -1.33,-1.562 -0.839,-0.86 -1.614,-1.563 -1.721,-1.563 -0.108,0 0.491,0.703 1.33,1.563 m -87.518,7.91 -1.544,1.66 1.66,-1.544 c 1.544,-1.436 1.84,-1.776 1.544,-1.776 -0.064,0 -0.811,0.747 -1.66,1.66 m 41.366,15.137 c 0,1.826 0.067,2.573 0.149,1.66 0.082,-0.913 0.082,-2.408 0,-3.321 -0.082,-0.913 -0.149,-0.166 -0.149,1.661 m 23.691,4.492 c 1.384,1.396 2.605,2.539 2.712,2.539 0.107,0 -0.937,-1.143 -2.321,-2.539 -1.384,-1.397 -2.605,-2.539 -2.712,-2.539 -0.107,0 0.937,1.142 2.321,2.539 m -55.49,1.66 -1.346,1.465 1.465,-1.346 c 1.364,-1.253 1.645,-1.584 1.346,-1.584 -0.065,0 -0.724,0.659 -1.465,1.465 m 133.322,5.836 c 0.376,0.098 0.991,0.098 1.367,0 0.376,-0.099 0.069,-0.179 -0.683,-0.179 -0.752,0 -1.06,0.08 -0.684,0.179 m -156.647,1.683 c 0,0.752 0.08,1.06 0.178,0.684 0.099,-0.376 0.099,-0.991 0,-1.367 -0.098,-0.376 -0.178,-0.069 -0.178,0.683 m 104.747,3.516 c 0,2.686 0.062,3.784 0.139,2.441 0.076,-1.342 0.076,-3.54 0,-4.882 -0.077,-1.343 -0.139,-0.245 -0.139,2.441 m -32.872,5.469 c 0,0.752 0.08,1.059 0.178,0.683 0.099,-0.376 0.099,-0.991 0,-1.367 -0.098,-0.376 -0.178,-0.068 -0.178,0.684 m -61.712,4.175 c 0.376,0.099 0.991,0.099 1.367,0 0.376,-0.098 0.068,-0.178 -0.683,-0.178 -0.752,0 -1.06,0.08 -0.684,0.178 m 35.552,21.105 c 0.594,0.09 1.473,0.087 1.953,-0.005 0.481,-0.093 -0.005,-0.166 -1.079,-0.164 -1.075,0.003 -1.468,0.079 -0.874,0.169 m 12.299,-0.005 c 0.484,0.094 1.275,0.094 1.758,0 0.484,-0.093 0.088,-0.169 -0.879,-0.169 -0.966,0 -1.362,0.076 -0.879,0.169"
       stroke="none"
       fill="#5e6874"
       fill-rule="evenodd" />
    <path
       id="path4"
       d="m 104.199,86.994 c 0.484,0.094 1.275,0.094 1.758,0 0.483,-0.093 0.088,-0.169 -0.879,-0.169 -0.967,0 -1.362,0.076 -0.879,0.169 m -13.093,5.584 c 0,0.752 0.081,1.06 0.179,0.684 0.098,-0.376 0.098,-0.991 0,-1.367 -0.098,-0.376 -0.179,-0.069 -0.179,0.683 m 19.93,0.195 c 0.004,0.86 0.084,1.165 0.178,0.679 0.093,-0.485 0.09,-1.189 -0.008,-1.562 -0.098,-0.373 -0.174,0.024 -0.17,0.883 m 20.198,25.098 -1.742,1.856 1.811,-1.698 c 1.262,-1.183 1.874,-1.538 2.02,-1.172 0.143,0.359 0.219,0.309 0.24,-0.158 0.048,-1.076 -0.458,-0.821 -2.329,1.172 m 138.434,2.442 c 0,1.826 0.067,2.573 0.149,1.66 0.083,-0.913 0.083,-2.408 0,-3.321 -0.082,-0.913 -0.149,-0.166 -0.149,1.661 m -49.401,-1.06 c 0.17,0.17 2.052,0.256 4.182,0.193 l 3.871,-0.115 -4.181,-0.193 c -2.3,-0.106 -4.042,-0.054 -3.872,0.115 m -60.035,0.179 c 2.298,0.069 6.165,0.069 8.594,0 2.429,-0.068 0.549,-0.125 -4.178,-0.125 -4.726,0 -6.713,0.056 -4.416,0.125 m 87.327,-0.002 c 1.342,0.076 3.54,0.076 4.882,0 1.343,-0.076 0.245,-0.139 -2.441,-0.139 -2.686,0 -3.784,0.063 -2.441,0.139 m 30.287,2.64 c 0.003,1.075 0.079,1.468 0.169,0.874 0.089,-0.594 0.087,-1.473 -0.006,-1.953 -0.092,-0.481 -0.166,0.005 -0.163,1.079 m -105.19,24.219 c 0.729,0.752 1.413,1.367 1.521,1.367 0.107,0 -0.401,-0.615 -1.13,-1.367 -0.729,-0.752 -1.413,-1.367 -1.521,-1.367 -0.107,0 0.401,0.615 1.13,1.367 m 29.204,11.8 c 0.486,0.093 1.189,0.09 1.563,-0.008 0.373,-0.098 -0.025,-0.174 -0.884,-0.17 -0.859,0.004 -1.165,0.084 -0.679,0.178 m 12.373,33.024 -1.147,1.27 1.269,-1.147 c 0.699,-0.632 1.27,-1.203 1.27,-1.27 0,-0.302 -0.322,-0.036 -1.392,1.147 m -5.865,19.434 c 0,4.404 0.057,6.206 0.126,4.004 0.07,-2.202 0.07,-5.806 0,-8.008 -0.069,-2.202 -0.126,-0.4 -0.126,4.004 m -83.265,4.577 c 0.594,0.09 1.473,0.087 1.953,-0.005 0.481,-0.093 -0.005,-0.166 -1.079,-0.164 -1.075,0.003 -1.468,0.079 -0.874,0.169 m 117.587,30.071 c -0.476,0.494 -0.723,0.899 -0.549,0.899 0.381,0 1.802,-1.519 1.574,-1.683 -0.088,-0.063 -0.55,0.29 -1.025,0.784 m -40.932,5.196 c -0.687,0.295 -0.649,0.339 0.316,0.363 0.637,0.016 0.996,-0.136 0.856,-0.363 -0.133,-0.215 -0.275,-0.379 -0.316,-0.364 -0.041,0.016 -0.426,0.179 -0.856,0.364 m 82.226,9.57 c -0.948,0.967 -1.637,1.758 -1.529,1.758 0.107,0 0.971,-0.791 1.92,-1.758 0.949,-0.967 1.637,-1.758 1.53,-1.758 -0.108,0 -0.972,0.791 -1.921,1.758 m -109.277,4.391 c 1.45,0.075 3.823,0.075 5.273,0 1.451,-0.075 0.264,-0.136 -2.636,-0.136 -2.901,0 -4.087,0.061 -2.637,0.136 m 56.25,-10e-4 c 1.235,0.078 3.257,0.078 4.492,0 1.236,-0.077 0.225,-0.141 -2.246,-0.141 -2.471,0 -3.481,0.064 -2.246,0.141"
       stroke="none"
       fill="#497aa0"
       fill-rule="evenodd" />
  </g>
</svg>
