<svg id="svg" version="1.1" xmlns="http://www.w3.org/2000/svg" xmlns:xlink="http://www.w3.org/1999/xlink" width="400" height="400" viewBox="0, 0, 400,400"><g id="svgg"><path id="path0" d="M202.461 73.729 C 204.351 73.800,207.339 73.800,209.101 73.728 C 210.863 73.656,209.316 73.597,205.664 73.597 C 202.012 73.598,200.570 73.657,202.461 73.729 M214.941 74.097 C 215.317 74.196,215.933 74.196,216.309 74.097 C 216.685 73.999,216.377 73.919,215.625 73.919 C 214.873 73.919,214.565 73.999,214.941 74.097 M198.438 82.691 C 180.628 84.035,161.737 91.376,146.248 102.972 L 142.691 105.635 142.146 110.532 C 139.092 137.995,148.282 155.524,176.172 175.438 C 188.753 184.421,191.016 185.759,191.016 184.217 C 191.016 183.514,193.904 179.098,195.907 176.740 L 197.580 174.769 187.049 167.231 C 164.186 150.865,156.244 141.223,153.724 126.768 C 152.349 118.886,151.648 119.141,174.743 119.141 L 192.871 119.141 193.046 115.918 C 193.513 107.339,200.744 101.562,209.045 103.137 C 215.357 104.333,219.800 109.548,220.231 116.265 L 220.415 119.141 237.454 119.171 C 259.320 119.209,258.105 118.860,257.694 124.985 C 256.753 139.010,248.044 150.051,225.000 166.431 C 219.736 170.173,213.908 174.511,212.049 176.070 C 210.189 177.630,208.563 178.906,208.436 178.906 C 208.308 178.906,208.203 176.121,208.203 172.718 L 208.203 166.529 216.018 161.356 C 220.614 158.313,223.726 156.011,223.575 155.765 C 223.420 155.515,223.502 155.463,223.781 155.635 C 224.605 156.144,230.219 152.274,238.533 145.465 C 239.556 144.627,239.013 144.531,233.225 144.531 C 227.709 144.531,227.330 144.482,226.351 143.639 C 224.681 142.203,224.564 139.563,226.095 137.849 L 227.278 136.523 236.177 136.328 L 245.077 136.133 246.750 133.008 C 247.670 131.289,248.426 129.663,248.430 129.395 C 248.436 129.007,239.549 128.906,205.279 128.906 L 162.121 128.906 162.860 130.762 C 163.267 131.782,164.065 133.443,164.634 134.452 L 165.669 136.287 174.469 136.405 L 183.269 136.523 184.408 137.799 C 185.697 139.243,185.877 140.807,184.957 142.586 C 184.046 144.347,183.301 144.531,177.093 144.531 L 171.322 144.531 173.063 146.326 C 175.436 148.771,178.307 150.930,183.398 154.099 C 185.762 155.569,189.487 157.929,191.676 159.343 C 193.866 160.757,197.162 162.850,199.001 163.993 L 202.344 166.072 202.344 175.136 L 202.344 184.199 199.414 187.109 C 195.949 190.551,196.039 190.089,198.299 192.864 C 199.297 194.089,200.615 196.152,201.228 197.448 L 202.343 199.805 202.335 216.211 L 202.326 232.617 195.223 237.305 C 183.233 245.218,178.275 249.294,173.796 254.923 C 171.613 257.667,171.408 258.194,172.949 257.109 C 175.504 255.311,181.404 252.262,185.742 250.500 C 189.643 248.916,191.380 247.906,196.094 244.480 C 199.209 242.217,201.934 240.264,202.148 240.140 C 202.403 239.995,202.497 241.620,202.419 244.793 C 202.336 248.130,202.444 249.845,202.759 250.226 C 203.140 250.684,203.024 250.782,202.099 250.787 C 200.278 250.795,199.060 251.218,199.674 251.629 C 200.017 251.858,199.861 251.900,199.219 251.752 C 197.641 251.390,187.465 255.198,180.099 258.906 C 177.421 260.254,171.888 263.726,171.880 264.063 C 171.878 264.170,174.439 264.258,177.572 264.258 L 183.268 264.258 184.408 265.534 C 185.643 266.917,185.862 268.412,185.080 270.128 C 184.174 272.117,183.308 272.266,172.630 272.266 L 162.800 272.266 163.035 273.145 C 163.165 273.628,163.273 274.152,163.276 274.310 C 163.284 274.769,167.028 276.544,171.856 278.377 L 176.328 280.076 205.260 280.096 L 234.191 280.116 238.092 278.752 C 246.542 275.797,247.446 275.316,247.582 273.702 L 247.703 272.266 237.693 272.266 C 227.022 272.266,226.557 272.191,225.590 270.320 C 224.670 268.541,224.850 266.978,226.139 265.534 L 227.279 264.258 232.779 264.258 C 235.805 264.258,238.280 264.232,238.281 264.200 C 238.301 262.482,213.453 251.075,208.870 250.699 C 208.021 250.629,208.010 250.549,208.138 245.529 C 208.295 239.399,207.948 239.775,211.185 242.234 C 215.647 245.625,221.121 249.052,224.219 250.395 C 227.928 252.004,236.483 256.326,238.281 257.499 C 239.399 258.229,239.098 257.741,236.631 254.825 C 231.795 249.108,227.748 245.644,219.202 239.906 C 214.831 236.971,210.568 234.072,209.729 233.462 L 208.203 232.354 208.203 216.057 L 208.203 199.759 209.593 197.451 C 213.624 190.757,216.227 188.539,238.147 173.120 C 262.505 155.986,272.409 135.864,268.945 110.547 C 268.637 108.291,268.379 106.253,268.372 106.018 C 268.365 105.783,266.470 104.182,264.160 102.461 C 244.553 87.846,221.603 80.942,198.438 82.691 M300.391 89.724 C 297.916 90.609,298.713 94.531,301.367 94.531 C 303.695 94.531,304.698 91.695,302.877 90.263 C 301.829 89.438,301.431 89.352,300.391 89.724 M311.817 92.383 C 311.822 93.242,311.902 93.548,311.995 93.062 C 312.088 92.576,312.085 91.873,311.987 91.499 C 311.889 91.126,311.813 91.523,311.817 92.383 M180.332 95.171 C 182.717 96.303,183.834 99.599,182.625 101.938 C 180.026 106.964,173.047 105.226,173.047 99.553 C 173.047 95.745,176.793 93.492,180.332 95.171 M308.374 99.707 L 307.227 100.977 308.496 99.829 C 309.194 99.198,309.766 98.627,309.766 98.560 C 309.766 98.258,309.443 98.524,308.374 99.707 M114.823 103.027 L 113.477 104.492 114.941 103.146 C 115.747 102.406,116.406 101.746,116.406 101.681 C 116.406 101.383,116.076 101.664,114.823 103.027 M300.300 102.627 C 301.002 102.714,302.057 102.712,302.644 102.623 C 303.231 102.534,302.656 102.463,301.367 102.465 C 300.078 102.467,299.598 102.540,300.300 102.627 M278.906 102.842 C 278.906 102.901,280.269 104.263,281.934 105.869 L 284.961 108.789 282.041 105.762 C 279.329 102.950,278.906 102.556,278.906 102.842 M204.514 113.759 C 202.711 116.334,205.541 119.164,208.116 117.361 C 209.211 116.594,209.296 114.466,208.270 113.537 C 207.223 112.589,205.252 112.705,204.514 113.759 M277.584 116.895 C 279.854 123.703,275.170 143.036,269.018 152.251 L 267.124 155.089 268.709 156.982 C 270.611 159.254,272.535 163.180,272.883 165.501 L 273.136 167.188 275.372 167.188 C 284.891 167.188,294.297 174.266,296.129 182.807 C 296.509 184.578,296.651 184.766,297.618 184.766 C 299.487 184.766,302.591 185.899,304.707 187.355 L 306.757 188.765 306.534 181.980 C 305.742 157.833,296.322 134.906,280.515 118.652 C 277.813 115.874,277.102 115.448,277.584 116.895 M129.987 119.471 C 114.842 135.332,105.568 158.660,104.804 182.813 L 104.588 189.648 106.298 187.958 C 109.341 184.951,115.775 182.422,120.384 182.422 L 121.875 182.422 121.875 179.917 C 121.875 167.064,131.520 156.641,143.413 156.641 C 145.258 156.641,145.283 156.892,143.119 153.665 C 136.801 144.245,133.665 134.474,133.246 122.899 L 133.008 116.306 129.987 119.471 M312.599 122.461 C 312.603 123.320,312.683 123.626,312.776 123.140 C 312.870 122.654,312.866 121.951,312.768 121.577 C 312.671 121.204,312.594 121.602,312.599 122.461 M91.699 122.409 C 91.108 122.917,90.625 123.546,90.625 123.806 C 90.625 124.066,91.080 123.738,91.636 123.077 C 93.004 121.452,95.843 121.337,97.264 122.850 C 97.768 123.386,98.258 123.748,98.352 123.653 C 98.447 123.558,98.040 123.032,97.447 122.483 C 95.975 121.118,93.241 121.083,91.699 122.409 M97.320 128.919 C 96.813 129.342,96.581 129.688,96.804 129.688 C 97.198 129.688,98.438 128.629,98.438 128.292 C 98.438 128.026,98.299 128.104,97.320 128.919 M92.138 129.395 C 92.528 129.892,93.166 130.060,94.481 130.010 L 96.289 129.942 94.539 129.788 C 93.576 129.703,92.522 129.426,92.195 129.172 C 91.677 128.769,91.669 128.797,92.138 129.395 M285.169 141.608 C 288.215 143.184,288.186 147.457,285.118 149.043 C 283.345 149.960,282.091 149.747,280.625 148.281 C 277.187 144.843,280.895 139.398,285.169 141.608 M123.145 153.536 C 125.898 156.520,122.524 160.649,118.572 159.132 C 116.705 158.416,116.395 154.763,118.072 153.237 C 119.838 151.631,121.476 151.727,123.145 153.536 M203.423 158.081 C 203.049 158.179,202.346 158.182,201.860 158.089 C 201.374 157.995,201.680 157.915,202.539 157.911 C 203.398 157.907,203.796 157.983,203.423 158.081 M140.587 166.817 C 136.868 167.414,132.422 171.002,132.422 173.405 C 132.422 173.661,135.966 173.842,142.383 173.913 C 147.862 173.974,152.344 173.972,152.344 173.910 C 152.335 170.297,145.311 166.059,140.587 166.817 M252.171 173.524 C 251.363 174.677,251.404 175.232,252.364 176.192 C 253.697 177.525,255.451 176.618,255.463 174.590 C 255.475 172.623,253.296 171.918,252.171 173.524 M96.184 176.172 C 96.184 176.924,96.265 177.231,96.363 176.855 C 96.461 176.479,96.461 175.864,96.363 175.488 C 96.265 175.112,96.184 175.420,96.184 176.172 M315.325 177.734 C 315.325 178.486,315.405 178.794,315.504 178.418 C 315.602 178.042,315.602 177.427,315.504 177.051 C 315.405 176.675,315.325 176.982,315.325 177.734 M131.821 180.743 C 133.252 186.447,140.797 189.778,146.708 187.316 C 149.175 186.289,152.734 182.021,152.734 180.091 C 152.734 179.823,149.171 179.688,142.145 179.688 L 131.556 179.688 131.821 180.743 M269.218 180.438 C 263.292 182.636,260.002 187.479,260.042 193.945 C 260.132 208.479,280.458 212.739,286.570 199.506 C 291.696 188.408,280.600 176.215,269.218 180.438 M95.849 185.352 C 95.850 187.715,95.914 188.631,95.992 187.388 C 96.070 186.145,96.069 184.211,95.991 183.091 C 95.912 181.971,95.848 182.988,95.849 185.352 M243.516 186.627 C 241.895 187.709,242.209 190.810,243.984 191.256 C 246.137 191.796,247.727 190.374,247.311 188.281 C 247.003 186.727,244.802 185.768,243.516 186.627 M276.915 187.923 C 280.775 190.276,281.530 194.484,278.663 197.658 C 274.406 202.370,267.070 199.174,267.676 192.871 C 268.100 188.460,273.262 185.695,276.915 187.923 M163.459 191.974 C 162.350 193.083,162.251 194.002,163.108 195.226 C 164.380 197.042,167.578 195.912,167.578 193.645 C 167.578 192.768,165.886 191.016,165.039 191.016 C 164.697 191.016,163.986 191.447,163.459 191.974 M315.325 192.578 C 315.325 193.330,315.405 193.638,315.504 193.262 C 315.602 192.886,315.602 192.271,315.504 191.895 C 315.405 191.519,315.325 191.826,315.325 192.578 M96.192 194.336 C 96.197 195.195,96.277 195.501,96.370 195.015 C 96.463 194.529,96.460 193.826,96.362 193.452 C 96.264 193.079,96.188 193.477,96.192 194.336 M181.203 202.499 C 152.258 222.850,142.131 236.436,141.574 255.668 L 141.427 260.749 145.400 263.675 C 147.586 265.285,150.197 267.163,151.202 267.850 L 153.031 269.098 153.225 261.990 C 153.654 246.260,159.742 235.088,173.828 224.177 C 178.214 220.780,192.021 210.882,194.515 209.348 C 195.622 208.667,196.481 207.851,196.476 207.486 C 196.455 205.877,193.969 201.655,191.074 198.310 L 189.594 196.600 181.203 202.499 M219.211 198.557 C 217.350 200.794,215.036 204.713,214.650 206.280 C 214.418 207.223,215.006 207.721,224.096 214.281 C 252.064 234.463,258.597 244.037,258.132 264.161 C 258.064 267.115,258.044 269.532,258.088 269.532 C 258.132 269.532,259.293 268.696,260.669 267.676 C 262.045 266.655,264.716 264.700,266.605 263.332 L 270.038 260.843 269.797 256.092 C 268.783 236.089,259.237 223.089,231.055 203.336 C 227.402 200.776,223.774 198.187,222.991 197.583 C 221.165 196.174,221.201 196.165,219.211 198.557 M296.183 203.633 C 294.397 204.438,294.753 207.168,296.707 207.659 C 298.572 208.127,299.967 205.765,298.730 204.231 C 298.034 203.367,297.205 203.172,296.183 203.633 M148.685 205.497 C 147.371 206.531,147.294 208.295,148.524 209.158 C 151.259 211.073,154.010 207.554,151.485 205.371 C 150.462 204.486,149.941 204.509,148.685 205.497 M281.985 221.829 C 279.514 224.301,280.058 227.683,283.151 229.078 C 288.475 231.479,292.408 224.142,287.426 221.104 C 285.357 219.842,283.759 220.056,281.985 221.829 M182.885 227.220 C 182.602 227.333,182.202 227.870,181.996 228.414 C 181.208 230.487,183.765 232.194,185.324 230.636 C 186.894 229.065,184.979 226.382,182.885 227.220 M126.563 228.125 C 125.131 229.556,125.926 231.999,128.021 232.608 C 129.141 232.933,130.859 231.303,130.859 229.916 C 130.859 227.767,128.079 226.609,126.563 228.125 M226.780 228.212 C 225.979 229.355,226.012 230.203,226.886 230.994 C 228.322 232.294,230.469 231.394,230.469 229.492 C 230.469 227.470,227.920 226.585,226.780 228.212 M287.286 256.738 L 285.742 258.398 287.402 256.854 C 288.946 255.418,289.242 255.078,288.946 255.078 C 288.883 255.078,288.136 255.825,287.286 256.738 M128.125 261.133 C 130.158 263.174,131.908 264.844,132.016 264.844 C 132.123 264.844,130.548 263.174,128.516 261.133 C 126.483 259.092,124.732 257.422,124.625 257.422 C 124.517 257.422,126.092 259.092,128.125 261.133 M316.497 263.281 C 316.497 264.033,316.577 264.341,316.676 263.965 C 316.774 263.589,316.774 262.974,316.676 262.598 C 316.577 262.222,316.497 262.529,316.497 263.281 M279.468 264.551 L 278.320 265.820 279.590 264.673 C 280.288 264.042,280.859 263.471,280.859 263.403 C 280.859 263.102,280.537 263.367,279.468 264.551 M96.733 264.651 C 94.960 266.424,95.927 268.750,98.438 268.750 C 99.629 268.750,100.120 268.540,100.586 267.828 C 102.063 265.574,98.636 262.748,96.733 264.651 M309.673 269.808 C 310.158 269.901,310.862 269.897,311.235 269.800 C 311.608 269.702,311.211 269.625,310.352 269.630 C 309.492 269.634,309.187 269.714,309.673 269.808 M214.746 293.244 C 215.229 293.338,216.021 293.338,216.504 293.244 C 216.987 293.151,216.592 293.075,215.625 293.075 C 214.658 293.075,214.263 293.151,214.746 293.244 M203.223 293.650 C 204.888 293.723,207.612 293.723,209.277 293.650 C 210.942 293.577,209.580 293.517,206.250 293.517 C 202.920 293.517,201.558 293.577,203.223 293.650 " stroke="none" fill="#f1f2f4" fill-rule="evenodd"></path><path id="path1" d="M197.656 74.069 C 135.813 79.759,89.527 136.697,97.031 197.852 C 102.955 246.130,143.258 286.236,191.992 292.348 C 260.700 300.966,321.761 242.344,314.865 174.385 C 308.885 115.455,254.427 68.846,197.656 74.069 M102.420 78.965 C 86.322 81.819,88.705 106.449,105.078 106.443 C 121.953 106.437,124.216 81.750,107.596 78.971 C 105.021 78.540,104.820 78.540,102.420 78.965 M216.797 82.852 C 232.033 84.626,249.029 91.293,261.914 100.551 C 268.443 105.242,268.529 105.331,268.803 107.761 C 268.940 108.971,269.270 111.631,269.535 113.672 C 272.426 135.878,261.489 156.961,238.832 172.859 C 216.763 188.345,212.613 191.893,209.587 197.857 L 208.594 199.816 208.594 216.116 L 208.594 232.417 210.114 233.494 C 210.951 234.086,215.003 236.837,219.119 239.608 C 228.181 245.709,231.510 248.532,236.214 254.105 C 240.165 258.788,240.384 259.271,237.719 257.438 C 236.734 256.761,233.163 254.888,229.781 253.277 C 219.839 248.539,219.030 248.086,213.700 244.269 C 210.902 242.265,208.564 240.625,208.505 240.625 C 208.447 240.625,208.398 242.811,208.398 245.483 L 208.398 250.340 209.766 250.590 C 216.351 251.794,238.667 262.496,238.672 264.453 C 238.673 264.561,236.129 264.592,233.019 264.522 C 227.416 264.397,227.357 264.405,226.378 265.383 C 225.016 266.746,224.994 269.417,226.333 270.974 L 227.275 272.070 237.466 272.186 L 247.656 272.303 247.656 273.805 C 247.656 275.294,247.633 275.317,245.020 276.376 C 238.188 279.144,232.715 280.777,231.480 280.416 C 230.808 280.219,218.258 280.079,203.125 280.099 L 175.977 280.134 172.664 278.911 C 165.366 276.216,162.891 274.812,162.891 273.365 L 162.891 272.070 172.184 272.207 C 182.936 272.366,183.968 272.163,185.003 269.685 C 186.674 265.687,184.805 264.453,177.079 264.453 L 170.919 264.453 174.034 262.270 C 179.510 258.431,190.807 253.381,198.953 251.131 L 202.340 250.195 202.342 245.218 L 202.344 240.241 198.926 242.658 C 197.046 243.987,194.447 245.883,193.150 246.870 C 191.853 247.856,190.184 248.908,189.439 249.205 C 181.488 252.386,173.739 256.339,171.582 258.315 C 170.001 259.763,170.655 258.600,173.252 255.344 C 177.566 249.935,183.283 245.072,192.969 238.572 C 197.803 235.328,201.891 232.485,202.054 232.255 C 202.217 232.025,202.305 224.541,202.249 215.625 L 202.148 199.414 201.090 197.407 C 200.507 196.303,199.158 194.261,198.092 192.870 L 196.153 190.340 199.248 187.001 L 202.344 183.663 202.344 175.027 L 202.344 166.392 198.866 164.153 C 196.953 162.922,193.399 160.684,190.968 159.180 C 179.583 152.136,171.096 145.897,171.093 144.567 C 171.093 144.440,173.653 144.393,176.781 144.463 C 184.111 144.626,186.022 143.489,185.123 139.499 C 184.516 136.807,184.178 136.719,174.462 136.719 L 165.808 136.719 164.586 134.668 C 163.213 132.362,162.109 129.861,162.109 129.054 C 162.109 128.600,168.896 128.516,205.469 128.516 C 229.316 128.516,248.828 128.581,248.828 128.662 C 248.828 129.295,247.500 132.267,246.319 134.277 L 244.884 136.719 236.485 136.719 C 226.981 136.719,226.167 136.905,225.392 139.253 C 224.131 143.074,226.476 144.518,233.955 144.525 L 239.589 144.531 238.644 145.537 C 236.405 147.920,229.526 152.883,219.522 159.331 L 208.789 166.249 208.681 172.382 C 208.622 175.756,208.677 178.516,208.802 178.516 C 208.928 178.516,209.767 177.826,210.667 176.982 C 212.784 175.000,215.528 172.940,225.781 165.639 C 247.216 150.375,255.162 140.482,257.447 126.217 C 258.565 119.236,259.430 119.531,237.842 119.531 L 219.824 119.531 220.052 118.392 C 220.398 116.663,219.619 112.647,218.515 110.469 C 211.834 97.285,191.133 103.470,193.089 118.066 L 193.285 119.531 174.420 119.531 C 151.367 119.531,152.506 119.083,154.089 127.531 C 156.742 141.690,164.610 151.001,187.958 167.615 C 198.991 175.466,198.186 174.375,195.397 177.697 C 194.139 179.195,192.527 181.570,191.814 182.974 C 191.024 184.531,190.349 185.425,190.083 185.266 C 189.649 185.005,188.388 184.143,181.055 179.088 C 161.722 165.762,153.053 157.049,147.253 145.117 C 142.352 135.037,140.375 125.349,141.393 116.406 C 141.625 114.365,141.926 111.138,142.062 109.236 L 142.309 105.776 144.494 104.032 C 164.832 87.804,191.707 79.931,216.797 82.852 M296.664 82.956 C 288.402 86.803,289.451 99.219,298.254 101.778 C 307.230 104.387,314.469 95.505,310.173 87.155 C 307.828 82.597,301.595 80.660,296.664 82.956 M108.814 88.079 C 114.398 92.337,109.457 100.995,102.986 98.291 C 98.169 96.278,97.927 90.382,102.539 87.426 C 104.199 86.362,106.937 86.647,108.814 88.079 M303.048 90.137 C 304.970 91.799,303.925 94.531,301.367 94.531 C 300.055 94.531,298.438 93.129,298.438 91.992 C 298.438 89.995,301.471 88.774,303.048 90.137 M175.344 95.509 C 170.992 97.874,173.502 105.063,178.502 104.552 C 181.968 104.198,183.875 100.454,182.220 97.253 C 181.116 95.119,177.670 94.245,175.344 95.509 M208.416 113.459 C 210.200 115.243,209.148 118.099,206.707 118.099 C 204.018 118.099,202.853 114.948,204.935 113.310 C 206.287 112.246,207.245 112.287,208.416 113.459 M280.884 118.652 C 294.766 133.472,302.663 150.212,305.899 171.680 C 306.687 176.909,307.368 189.063,306.873 189.063 C 306.720 189.063,305.946 188.543,305.153 187.908 C 303.234 186.373,301.048 185.489,298.448 185.199 L 296.309 184.961 296.017 183.245 C 294.604 174.948,286.177 168.239,276.375 167.608 L 272.867 167.383 272.555 165.512 C 272.103 162.810,270.697 159.877,268.640 157.352 L 266.844 155.147 268.896 152.029 C 274.565 143.412,278.186 130.034,277.604 119.859 C 277.315 114.806,277.289 114.815,280.884 118.652 M133.462 121.777 C 133.440 132.920,136.645 143.371,143.142 153.337 C 144.336 155.169,145.311 156.705,145.309 156.752 C 145.308 156.798,144.158 156.885,142.755 156.945 C 131.322 157.433,122.991 166.218,122.301 178.516 L 122.070 182.617 118.714 182.873 C 113.790 183.249,105.078 187.456,105.078 189.459 C 105.078 189.671,104.902 189.844,104.688 189.844 C 103.681 189.844,104.449 177.723,106.061 168.164 C 109.218 149.444,117.974 131.645,130.416 118.652 C 133.657 115.268,133.475 115.082,133.462 121.777 M315.188 118.165 C 313.770 118.936,312.748 121.226,313.030 123.001 C 313.559 126.333,317.914 128.143,320.502 126.106 C 325.190 122.419,320.435 115.314,315.188 118.165 M145.075 166.827 C 151.490 168.442,154.993 176.446,151.892 182.404 C 146.618 192.540,131.445 189.075,131.445 177.734 C 131.445 170.107,137.826 165.002,145.075 166.827 M255.063 173.121 C 256.551 174.718,255.621 176.953,253.469 176.953 C 251.547 176.953,250.800 174.016,252.431 172.874 C 253.596 172.058,254.118 172.107,255.063 173.121 M279.660 180.693 C 290.625 185.700,290.926 201.034,280.164 206.333 C 270.550 211.066,259.301 203.773,259.852 193.164 C 260.387 182.869,270.492 176.507,279.660 180.693 M246.697 186.896 C 248.381 188.580,247.215 191.797,244.922 191.797 C 242.545 191.797,241.338 188.225,243.217 186.747 C 244.568 185.684,245.526 185.725,246.697 186.896 M270.898 188.227 C 265.524 191.547,267.769 199.740,274.053 199.740 C 280.058 199.740,282.382 191.408,277.250 188.279 C 275.588 187.266,272.495 187.241,270.898 188.227 M166.710 191.624 C 167.845 192.419,167.892 194.608,166.797 195.703 C 165.149 197.351,162.500 196.105,162.500 193.683 C 162.500 191.331,164.733 190.239,166.710 191.624 M231.641 203.513 C 259.825 223.299,269.922 237.349,269.922 256.782 L 269.922 261.152 263.965 265.481 L 258.008 269.810 257.765 261.956 C 257.156 242.274,251.468 234.239,224.258 214.624 C 214.190 207.367,214.144 207.327,214.473 206.182 C 215.032 204.230,217.464 200.211,219.364 198.098 L 221.173 196.086 222.989 197.400 C 223.988 198.123,227.881 200.873,231.641 203.513 M130.314 197.229 C 137.939 200.692,137.106 212.259,129.057 214.681 C 121.651 216.910,115.189 210.420,117.364 202.938 C 118.899 197.655,125.167 194.892,130.314 197.229 M192.005 199.121 C 193.990 201.524,196.067 205.161,196.664 207.280 C 196.856 207.958,196.586 208.298,195.222 209.098 C 192.978 210.413,177.075 221.782,173.633 224.531 C 158.949 236.262,152.514 249.310,153.192 265.979 C 153.351 269.907,153.686 269.955,147.070 265.108 L 141.602 261.101 141.492 256.380 C 141.062 237.772,152.086 222.657,180.815 202.465 C 190.772 195.467,189.340 195.895,192.005 199.121 M298.579 203.713 C 299.552 204.686,299.722 205.825,299.047 206.855 C 297.840 208.697,294.922 207.787,294.922 205.569 C 294.922 203.532,297.228 202.362,298.579 203.713 M151.953 205.469 C 154.078 207.594,151.532 210.969,148.851 209.582 C 147.078 208.665,146.810 207.326,148.075 205.717 C 149.066 204.457,150.829 204.345,151.953 205.469 M286.999 220.574 C 291.739 222.823,290.281 229.688,285.064 229.688 C 279.747 229.688,278.410 223.064,283.231 220.606 C 284.889 219.760,285.277 219.757,286.999 220.574 M130.628 228.650 C 132.068 230.578,129.977 233.264,127.518 232.647 C 126.104 232.292,125.220 230.346,125.863 229.004 C 126.914 226.813,129.134 226.648,130.628 228.650 M185.182 227.357 C 186.370 227.993,186.208 230.273,184.916 231.120 C 184.001 231.720,183.787 231.729,182.865 231.214 C 180.123 229.682,182.410 225.874,185.182 227.357 M229.871 227.721 C 231.974 230.045,229.106 233.111,226.660 231.154 C 225.827 230.488,226.064 228.245,227.040 227.561 C 228.201 226.748,229.033 226.795,229.871 227.721 M243.507 242.791 C 244.449 245.245,241.709 247.196,239.777 245.447 C 237.988 243.828,240.025 240.483,242.135 241.574 C 242.756 241.896,243.374 242.443,243.507 242.791 M171.551 242.053 C 172.428 242.846,172.481 244.651,171.652 245.480 C 170.781 246.351,168.871 246.268,168.373 245.338 C 167.013 242.796,169.514 240.209,171.551 242.053 M94.681 258.360 C 88.299 261.332,87.654 270.090,93.524 274.078 C 100.398 278.749,109.692 271.487,106.886 263.637 C 105.052 258.505,99.513 256.110,94.681 258.360 M307.125 258.201 C 301.556 261.597,304.885 270.425,311.325 269.337 C 316.580 268.449,318.058 260.933,313.521 258.166 C 311.875 257.163,308.801 257.180,307.125 258.201 M100.488 264.921 C 102.580 267.340,99.251 270.409,96.571 268.533 C 94.962 267.405,95.604 264.694,97.656 263.953 C 98.541 263.633,99.725 264.038,100.488 264.921 " stroke="none" fill="#041426" fill-rule="evenodd"></path><path id="path2" d="M102.044 87.988 C 95.846 92.295,101.495 101.078,108.248 97.633 C 110.084 96.697,110.938 95.044,110.938 92.425 C 110.938 88.262,105.532 85.565,102.044 87.988 M91.919 122.749 C 91.477 123.235,91.203 123.877,91.311 124.175 C 91.431 124.508,91.336 124.612,91.066 124.445 C 90.766 124.260,90.625 124.679,90.625 125.758 C 90.625 126.706,90.808 127.344,91.081 127.344 C 91.331 127.344,91.438 127.442,91.317 127.563 C 90.663 128.217,92.865 129.588,94.624 129.623 C 98.359 129.696,100.127 126.116,97.714 123.367 C 96.159 121.597,93.250 121.286,91.919 122.749 M281.400 141.634 C 278.907 142.864,278.521 146.177,280.625 148.281 C 282.091 149.747,283.345 149.960,285.118 149.043 C 290.056 146.490,286.385 139.174,281.400 141.634 M119.531 152.221 C 117.363 153.044,116.296 155.711,117.334 157.718 C 118.947 160.838,124.219 159.397,124.219 155.836 C 124.219 153.758,121.337 151.536,119.531 152.221 M131.623 176.070 C 130.891 179.952,130.124 179.688,142.126 179.688 L 152.637 179.688 152.863 178.556 C 153.152 177.113,152.771 174.736,152.172 174.238 C 151.905 174.017,147.566 173.808,141.896 173.744 L 132.082 173.633 131.623 176.070 M123.047 197.226 C 113.723 200.524,116.174 214.857,126.059 214.840 C 132.148 214.830,136.369 209.805,135.196 203.964 C 134.038 198.202,128.684 195.232,123.047 197.226 M169.006 242.121 C 167.766 243.491,168.475 246.094,170.089 246.094 C 170.954 246.094,172.266 244.681,172.266 243.750 C 172.266 241.941,170.133 240.875,169.006 242.121 M240.100 242.121 C 238.562 243.819,240.232 246.749,242.152 245.722 C 243.961 244.754,243.987 242.760,242.204 241.806 C 241.168 241.251,240.842 241.300,240.100 242.121 " stroke="none" fill="#38aaf5" fill-rule="evenodd"></path><path id="path3" d="M197.363 74.097 C 197.739 74.196,198.354 74.196,198.730 74.097 C 199.106 73.999,198.799 73.919,198.047 73.919 C 197.295 73.919,196.987 73.999,197.363 74.097 M212.016 74.104 C 212.502 74.198,213.205 74.194,213.579 74.097 C 213.952 73.999,213.555 73.922,212.695 73.927 C 211.836 73.931,211.530 74.011,212.016 74.104 M95.291 82.715 L 93.945 84.180 95.410 82.834 C 96.774 81.581,97.055 81.250,96.756 81.250 C 96.691 81.250,96.032 81.909,95.291 82.715 M300.293 81.916 C 300.776 82.009,301.567 82.009,302.051 81.916 C 302.534 81.823,302.139 81.747,301.172 81.747 C 300.205 81.747,299.810 81.823,300.293 81.916 M205.371 82.307 C 205.854 82.400,206.646 82.400,207.129 82.307 C 207.612 82.214,207.217 82.138,206.250 82.138 C 205.283 82.138,204.888 82.214,205.371 82.307 M290.724 92.383 C 290.728 93.242,290.808 93.548,290.901 93.062 C 290.995 92.576,290.991 91.873,290.893 91.499 C 290.796 91.126,290.719 91.523,290.724 92.383 M177.441 94.801 C 177.817 94.899,178.433 94.899,178.809 94.801 C 179.185 94.702,178.877 94.622,178.125 94.622 C 177.373 94.622,177.065 94.702,177.441 94.801 M292.578 98.169 C 292.578 98.236,293.149 98.808,293.848 99.439 L 295.117 100.586 293.970 99.316 C 292.900 98.133,292.578 97.867,292.578 98.169 M277.344 101.685 C 277.344 101.752,277.915 102.323,278.613 102.954 L 279.883 104.102 278.736 102.832 C 277.666 101.649,277.344 101.383,277.344 101.685 M129.482 105.957 L 126.758 108.789 129.590 106.065 C 132.220 103.535,132.600 103.125,132.314 103.125 C 132.254 103.125,130.980 104.399,129.482 105.957 M284.375 108.789 C 285.104 109.541,285.788 110.156,285.895 110.156 C 286.003 110.156,285.494 109.541,284.766 108.789 C 284.037 108.037,283.353 107.422,283.245 107.422 C 283.138 107.422,283.646 108.037,284.375 108.789 M280.452 118.457 C 282.071 120.182,282.422 120.492,282.422 120.199 C 282.422 120.136,281.587 119.301,280.566 118.343 L 278.711 116.602 280.452 118.457 M133.302 118.555 C 133.306 119.414,133.386 119.720,133.479 119.234 C 133.573 118.748,133.569 118.045,133.472 117.671 C 133.374 117.298,133.297 117.695,133.302 118.555 M316.895 117.457 C 317.271 117.555,317.886 117.555,318.262 117.457 C 318.638 117.359,318.330 117.278,317.578 117.278 C 316.826 117.278,316.519 117.359,316.895 117.457 M141.144 120.898 C 141.146 122.402,141.216 122.970,141.301 122.159 C 141.385 121.349,141.384 120.118,141.298 119.425 C 141.211 118.731,141.142 119.395,141.144 120.898 M183.008 119.141 L 172.852 119.356 183.105 119.444 C 189.739 119.500,193.359 119.393,193.359 119.141 C 193.359 118.926,193.315 118.789,193.262 118.838 C 193.208 118.886,188.594 119.022,183.008 119.141 M233.496 119.432 C 235.698 119.502,239.302 119.502,241.504 119.432 C 243.706 119.362,241.904 119.305,237.500 119.305 C 233.096 119.305,231.294 119.362,233.496 119.432 M269.622 124.609 C 269.622 125.361,269.702 125.669,269.801 125.293 C 269.899 124.917,269.899 124.302,269.801 123.926 C 269.702 123.550,269.622 123.857,269.622 124.609 M178.711 128.804 C 218.785 129.072,248.828 129.074,248.828 128.809 C 248.828 128.647,229.624 128.557,206.152 128.609 C 182.681 128.660,170.332 128.747,178.711 128.804 M237.109 136.328 L 229.102 136.548 236.989 136.633 C 241.920 136.687,244.966 136.572,245.117 136.328 C 245.250 136.113,245.304 135.976,245.238 136.023 C 245.172 136.070,241.514 136.207,237.109 136.328 M169.629 136.620 C 171.938 136.689,175.718 136.689,178.027 136.620 C 180.337 136.551,178.447 136.494,173.828 136.494 C 169.209 136.494,167.319 136.551,169.629 136.620 M243.346 151.855 L 241.211 154.102 243.457 151.966 C 244.692 150.792,245.703 149.781,245.703 149.720 C 245.703 149.430,245.330 149.769,243.346 151.855 M251.940 161.621 L 249.805 163.867 252.051 161.732 C 253.286 160.558,254.297 159.547,254.297 159.486 C 254.297 159.196,253.923 159.534,251.940 161.621 M272.780 166.602 C 272.849 167.283,273.159 167.387,275.199 167.418 L 277.539 167.453 275.318 167.301 C 273.650 167.188,273.048 166.984,272.899 166.485 C 272.754 165.998,272.722 166.029,272.780 166.602 M208.275 172.949 C 208.236 176.226,208.335 178.907,208.496 178.907 C 208.657 178.908,208.743 177.106,208.686 174.903 C 208.498 167.623,208.349 166.911,208.275 172.949 M134.155 170.020 L 133.008 171.289 134.277 170.142 C 135.461 169.072,135.726 168.750,135.425 168.750 C 135.357 168.750,134.786 169.321,134.155 170.020 M122.003 179.883 C 122.005 181.387,122.076 181.954,122.160 181.144 C 122.245 180.333,122.243 179.103,122.157 178.409 C 122.071 177.716,122.001 178.379,122.003 179.883 M96.200 179.688 C 96.200 180.654,96.276 181.050,96.369 180.566 C 96.463 180.083,96.463 179.292,96.369 178.809 C 96.276 178.325,96.200 178.721,96.200 179.688 M272.949 179.573 C 273.433 179.666,274.224 179.666,274.707 179.573 C 275.190 179.479,274.795 179.403,273.828 179.403 C 272.861 179.403,272.466 179.479,272.949 179.573 M315.387 184.766 C 315.387 187.666,315.449 188.853,315.524 187.402 C 315.599 185.952,315.599 183.579,315.524 182.129 C 315.449 180.679,315.387 181.865,315.387 184.766 M306.724 184.300 C 306.663 187.523,306.519 188.643,306.190 188.439 C 305.899 188.260,305.845 188.333,306.038 188.646 C 306.733 189.769,307.052 188.165,306.933 184.146 L 306.807 179.883 306.724 184.300 M104.445 184.766 C 104.445 187.236,104.508 188.247,104.586 187.012 C 104.663 185.776,104.663 183.755,104.586 182.520 C 104.508 181.284,104.445 182.295,104.445 184.766 M119.438 182.698 C 119.924 182.792,120.627 182.788,121.001 182.690 C 121.374 182.592,120.977 182.516,120.117 182.520 C 119.258 182.525,118.952 182.605,119.438 182.698 M199.987 186.230 L 197.852 188.477 200.098 186.341 C 201.333 185.167,202.344 184.156,202.344 184.095 C 202.344 183.805,201.970 184.144,199.987 186.230 M296.192 184.375 C 296.289 184.736,296.863 184.982,297.686 185.016 C 298.911 185.066,298.925 185.055,297.853 184.883 C 297.209 184.780,296.536 184.491,296.358 184.242 C 296.139 183.936,296.085 183.979,296.192 184.375 M273.344 187.386 C 273.830 187.479,274.533 187.476,274.907 187.378 C 275.280 187.280,274.883 187.204,274.023 187.208 C 273.164 187.212,272.858 187.292,273.344 187.386 M96.205 190.430 C 96.208 191.504,96.284 191.897,96.374 191.303 C 96.464 190.709,96.461 189.831,96.369 189.350 C 96.276 188.870,96.203 189.355,96.205 190.430 M280.177 193.555 C 280.181 194.414,280.261 194.720,280.354 194.234 C 280.448 193.748,280.444 193.045,280.347 192.671 C 280.249 192.298,280.172 192.695,280.177 193.555 M208.302 201.367 C 208.306 202.227,208.386 202.532,208.479 202.046 C 208.573 201.560,208.569 200.857,208.472 200.484 C 208.374 200.110,208.297 200.508,208.302 201.367 M250.977 218.750 C 251.816 219.609,252.590 220.313,252.698 220.313 C 252.805 220.313,252.206 219.609,251.367 218.750 C 250.528 217.891,249.754 217.188,249.646 217.188 C 249.539 217.188,250.137 217.891,250.977 218.750 M208.364 225.000 C 208.364 228.760,208.422 230.298,208.494 228.418 C 208.566 226.538,208.566 223.462,208.494 221.582 C 208.422 219.702,208.364 221.240,208.364 225.000 M254.492 222.266 C 255.331 223.125,256.106 223.828,256.213 223.828 C 256.321 223.828,255.722 223.125,254.883 222.266 C 254.044 221.406,253.269 220.703,253.162 220.703 C 253.054 220.703,253.653 221.406,254.492 222.266 M166.974 230.176 L 165.430 231.836 167.090 230.292 C 168.634 228.856,168.930 228.516,168.634 228.516 C 168.570 228.516,167.823 229.263,166.974 230.176 M208.340 245.313 C 208.340 247.139,208.407 247.886,208.489 246.973 C 208.571 246.060,208.571 244.565,208.489 243.652 C 208.407 242.739,208.340 243.486,208.340 245.313 M232.031 249.805 C 233.415 251.201,234.636 252.344,234.743 252.344 C 234.850 252.344,233.806 251.201,232.422 249.805 C 231.038 248.408,229.817 247.266,229.710 247.266 C 229.603 247.266,230.647 248.408,232.031 249.805 M176.541 251.465 L 175.195 252.930 176.660 251.584 C 178.024 250.331,178.305 250.000,178.006 250.000 C 177.941 250.000,177.282 250.659,176.541 251.465 M309.863 257.301 C 310.239 257.399,310.854 257.399,311.230 257.301 C 311.606 257.202,311.299 257.122,310.547 257.122 C 309.795 257.122,309.487 257.202,309.863 257.301 M153.216 258.984 C 153.216 259.736,153.296 260.044,153.394 259.668 C 153.493 259.292,153.493 258.677,153.394 258.301 C 153.296 257.925,153.216 258.232,153.216 258.984 M257.963 262.500 C 257.963 265.186,258.025 266.284,258.102 264.941 C 258.178 263.599,258.178 261.401,258.102 260.059 C 258.025 258.716,257.963 259.814,257.963 262.500 M225.091 267.969 C 225.091 268.721,225.171 269.028,225.269 268.652 C 225.368 268.276,225.368 267.661,225.269 267.285 C 225.171 266.909,225.091 267.217,225.091 267.969 M163.379 272.144 C 163.755 272.243,164.370 272.243,164.746 272.144 C 165.122 272.046,164.814 271.966,164.063 271.966 C 163.311 271.966,163.003 272.046,163.379 272.144 M198.931 293.249 C 199.525 293.339,200.404 293.336,200.884 293.244 C 201.365 293.151,200.879 293.078,199.805 293.080 C 198.730 293.083,198.337 293.159,198.931 293.249 M211.230 293.244 C 211.714 293.338,212.505 293.338,212.988 293.244 C 213.472 293.151,213.076 293.075,212.109 293.075 C 211.143 293.075,210.747 293.151,211.230 293.244 " stroke="none" fill="#5e6874" fill-rule="evenodd"></path><path id="path4" d="M104.199 86.994 C 104.683 87.088,105.474 87.088,105.957 86.994 C 106.440 86.901,106.045 86.825,105.078 86.825 C 104.111 86.825,103.716 86.901,104.199 86.994 M91.106 92.578 C 91.106 93.330,91.187 93.638,91.285 93.262 C 91.383 92.886,91.383 92.271,91.285 91.895 C 91.187 91.519,91.106 91.826,91.106 92.578 M111.036 92.773 C 111.040 93.633,111.120 93.938,111.214 93.452 C 111.307 92.967,111.304 92.263,111.206 91.890 C 111.108 91.517,111.032 91.914,111.036 92.773 M131.234 117.871 L 129.492 119.727 131.303 118.029 C 132.565 116.846,133.177 116.491,133.323 116.857 C 133.466 117.216,133.542 117.166,133.563 116.699 C 133.611 115.623,133.105 115.878,131.234 117.871 M269.668 120.313 C 269.668 122.139,269.735 122.886,269.817 121.973 C 269.900 121.060,269.900 119.565,269.817 118.652 C 269.735 117.739,269.668 118.486,269.668 120.313 M220.267 119.253 C 220.437 119.423,222.319 119.509,224.449 119.446 L 228.320 119.331 224.139 119.138 C 221.839 119.032,220.097 119.084,220.267 119.253 M160.232 119.432 C 162.530 119.501,166.397 119.501,168.826 119.432 C 171.255 119.364,169.375 119.307,164.648 119.307 C 159.922 119.307,157.935 119.363,160.232 119.432 M247.559 119.430 C 248.901 119.506,251.099 119.506,252.441 119.430 C 253.784 119.354,252.686 119.291,250.000 119.291 C 247.314 119.291,246.216 119.354,247.559 119.430 M277.846 122.070 C 277.849 123.145,277.925 123.538,278.015 122.944 C 278.104 122.350,278.102 121.471,278.009 120.991 C 277.917 120.510,277.843 120.996,277.846 122.070 M172.656 146.289 C 173.385 147.041,174.069 147.656,174.177 147.656 C 174.284 147.656,173.776 147.041,173.047 146.289 C 172.318 145.537,171.634 144.922,171.526 144.922 C 171.419 144.922,171.927 145.537,172.656 146.289 M201.860 158.089 C 202.346 158.182,203.049 158.179,203.423 158.081 C 203.796 157.983,203.398 157.907,202.539 157.911 C 201.680 157.915,201.374 157.995,201.860 158.089 M214.233 191.113 L 213.086 192.383 214.355 191.236 C 215.054 190.604,215.625 190.033,215.625 189.966 C 215.625 189.664,215.303 189.930,214.233 191.113 M208.368 210.547 C 208.368 214.951,208.425 216.753,208.494 214.551 C 208.564 212.349,208.564 208.745,208.494 206.543 C 208.425 204.341,208.368 206.143,208.368 210.547 M125.103 215.124 C 125.697 215.214,126.576 215.211,127.056 215.119 C 127.537 215.026,127.051 214.953,125.977 214.955 C 124.902 214.958,124.509 215.034,125.103 215.124 M242.690 245.195 C 242.214 245.689,241.967 246.094,242.141 246.094 C 242.522 246.094,243.943 244.575,243.715 244.411 C 243.627 244.348,243.165 244.701,242.690 245.195 M201.758 250.391 C 201.071 250.686,201.109 250.730,202.074 250.754 C 202.711 250.770,203.070 250.618,202.930 250.391 C 202.797 250.176,202.655 250.012,202.614 250.027 C 202.573 250.043,202.188 250.206,201.758 250.391 M283.984 259.961 C 283.036 260.928,282.347 261.719,282.455 261.719 C 282.562 261.719,283.426 260.928,284.375 259.961 C 285.324 258.994,286.012 258.203,285.905 258.203 C 285.797 258.203,284.933 258.994,283.984 259.961 M174.707 264.352 C 176.157 264.427,178.530 264.427,179.980 264.352 C 181.431 264.277,180.244 264.216,177.344 264.216 C 174.443 264.216,173.257 264.277,174.707 264.352 M230.957 264.351 C 232.192 264.429,234.214 264.429,235.449 264.351 C 236.685 264.274,235.674 264.210,233.203 264.210 C 230.732 264.210,229.722 264.274,230.957 264.351 " stroke="none" fill="#497aa0" fill-rule="evenodd"></path></g></svg>