<svg id="visual" viewBox="0 0 900 600" width="900" height="600" xmlns="http://www.w3.org/2000/svg" xmlns:xlink="http://www.w3.org/1999/xlink" version="1.1"><rect x="0" y="0" width="900" height="600" fill="#f5f5f5"></rect><path d="M0 502L9.3 496.3C18.7 490.7 37.3 479.3 56.2 487.3C75 495.3 94 522.7 112.8 535.7C131.7 548.7 150.3 547.3 169 542.7C187.7 538 206.3 530 225 529.5C243.7 529 262.3 536 281.2 527.8C300 519.7 319 496.3 337.8 486C356.7 475.7 375.3 478.3 394 483.7C412.7 489 431.3 497 450 496C468.7 495 487.3 485 506.2 487.8C525 490.7 544 506.3 562.8 506.3C581.7 506.3 600.3 490.7 619 486.7C637.7 482.7 656.3 490.3 675 502.2C693.7 514 712.3 530 731.2 538.2C750 546.3 769 546.7 787.8 538C806.7 529.3 825.3 511.7 844 501.7C862.7 491.7 881.3 489.3 890.7 488.2L900 487L900 601L890.7 601C881.3 601 862.7 601 844 601C825.3 601 806.7 601 787.8 601C769 601 750 601 731.2 601C712.3 601 693.7 601 675 601C656.3 601 637.7 601 619 601C600.3 601 581.7 601 562.8 601C544 601 525 601 506.2 601C487.3 601 468.7 601 450 601C431.3 601 412.7 601 394 601C375.3 601 356.7 601 337.8 601C319 601 300 601 281.2 601C262.3 601 243.7 601 225 601C206.3 601 187.7 601 169 601C150.3 601 131.7 601 112.8 601C94 601 75 601 56.2 601C37.3 601 18.7 601 9.3 601L0 601Z" fill="#4675CE" stroke-linecap="round" stroke-linejoin="miter"></path></svg>